<?xml version="1.0" encoding="UTF-8"?>
<svg width="353px" height="336px" viewBox="0 0 353 336" version="1.1" xmlns="http://www.w3.org/2000/svg" xmlns:xlink="http://www.w3.org/1999/xlink">
    <!-- Generator: Sketch 42 (36781) - http://www.bohemiancoding.com/sketch -->
    <title>Logo</title>
    <desc>Created with Sketch.</desc>
    <defs></defs>
    <g id="Symbols" stroke="none" stroke-width="1" fill="none" fill-rule="evenodd">
        <g id="Logo">
            <g id="Combined-Shape">
                <path d="M215,171.25154 L215,150.485411 L256,143 L256,178.736951 L256,199.50308 L215,206.988491 L215,171.25154 Z" fill="#33BCA5" transform="translate(235.500000, 174.994246) scale(-1, 1) translate(-235.500000, -174.994246) "></path>
                <path d="M176.5,0 L352.920984,128.177348 L285.534164,335.572652 L67.4658357,335.572652 L0.0790162272,128.177348 L176.5,0 Z M177,297.975782 L302,264.675061 L302,104.324939 L281,98.7344865 L281,126.598225 L250.295197,119.112814 L250.295197,90.5604987 L223.990628,83.5579059 L223.990628,113.417804 L193.285825,105.932393 L193.285825,75.383918 L177,71.0484355 L177,297.975782 Z" fill="#003D4D"></path>
                <path d="M177,297.975782 L177,297.951565 L52,264.675061 L52,104.324939 L73,98.7344865 L73,126.598225 L103.704803,119.112814 L103.704803,90.5604987 L130.009372,83.5579059 L130.009372,113.417804 L160.714175,105.932393 L160.714175,75.383918 L177,71.0484355 L177,71.0242177 L177,297.975782 Z M141,176.736951 L141,141 L100,148.485411 L100,169.25154 L100,204.988491 L141,197.50308 L141,176.736951 Z" fill="#33BCA5"></path>
            </g>
        </g>
    </g>
</svg>